<?xml version="1.0" encoding="UTF-8" standalone="no"?>
<svg width="100px" height="100px" viewBox="0 0 100 100" version="1.1" xmlns="http://www.w3.org/2000/svg" xmlns:xlink="http://www.w3.org/1999/xlink">
    <!-- Generator: Sketch 48.2 (47327) - http://www.bohemiancoding.com/sketch -->
    <title>1active</title>
    <desc>Created with Sketch.</desc>
    <defs>
        <radialGradient cx="50%" cy="6.61587939%" fx="50%" fy="6.61587939%" r="50%" gradientTransform="translate(0.500000,0.066159),scale(1.000000,0.641539),translate(-0.500000,-0.066159)" id="radialGradient-1">
            <stop stop-color="#FFB230" offset="0%"></stop>
            <stop stop-color="#F5D223" offset="100%"></stop>
        </radialGradient>
    </defs>
    <g id="Admin" stroke="none" stroke-width="1" fill="none" fill-rule="evenodd">
        <g id="1">
            <circle id="Oval-11" fill="url(#radialGradient-1)" cx="49.5833333" cy="49.5833333" r="49.5833333"></circle>
            <path d="M22.3910269,11 C11.9986819,19.2429532 5.33333333,31.981034 5.33333333,46.2758904 C5.33333333,71.1287041 25.4805196,91.2758904 50.3333333,91.2758904 C75.1861471,91.2758904 95.3333333,71.1287041 95.3333333,46.2758904 C95.3333333,31.981034 88.6679848,19.2429532 78.2756398,11 C90.6148696,19.7573448 98.6666667,34.1596519 98.6666667,50.442557 C98.6666667,77.1363199 77.0270962,98.7758904 50.3333333,98.7758904 C23.6395704,98.7758904 2,77.1363199 2,50.442557 C2,34.1596519 10.0517971,19.7573448 22.3910269,11 Z" id="Combined-Shape-Copy-4" fill="#000000" opacity="0.1"></path>
            <g id="Group-10" transform="translate(16.000000, 54.000000)" fill="#F5A623">
                <ellipse id="Oval-9-Copy-9" cx="8.125" cy="4.66666667" rx="7.29166667" ry="4.16666667"></ellipse>
                <ellipse id="Oval-9-Copy-8" cx="60.625" cy="4.66666667" rx="7.29166667" ry="4.16666667"></ellipse>
            </g>
            <path d="M43,67.5 C44.5356174,65.8333333 47.0967522,65 50.6834043,65 C54.2700565,65 56.7089217,65.8333333 58,67.5" id="Path-10-Copy-9" stroke="#8B572A" stroke-width="4" stroke-linecap="round"></path>
            <g id="Group-8" transform="translate(21.000000, 36.000000)" stroke="#8B572A" stroke-linecap="round" stroke-width="4">
                <path d="M0.916666667,0.583333333 L11.3333333,5.16666667" id="Line-4-Copy"></path>
                <path d="M47.5833333,0.583333333 L58,5.16666667" id="Line-4-Copy-2" transform="translate(52.583333, 2.666667) scale(-1, 1) translate(-52.583333, -2.666667) "></path>
            </g>
            <g id="Group-9" transform="translate(23.000000, 43.000000)" fill="#8B572A">
                <circle id="Oval-10-Copy-5" cx="4.33333333" cy="4.83333333" r="4.16666667"></circle>
                <circle id="Oval-10-Copy-4" cx="49.3333333" cy="4.83333333" r="4.16666667"></circle>
            </g>
            <ellipse id="Oval-12-Copy-4" fill="#FFFFFF" opacity="0.440065299" transform="translate(50.083333, 18.500000) scale(1, -1) translate(-50.083333, -18.500000) " cx="50.0833333" cy="18.5" rx="22.0833333" ry="12.5"></ellipse>
            <g id="Group-15" transform="translate(68.666667, 17.833333)" stroke="#8B572A" stroke-linecap="round" stroke-width="2">
                <path d="M0.689997559,6.84337798 C0.53874051,9.38244048 1.71617489,10.6519717 4.22230069,10.6519717" id="Path-10-Copy-10" transform="translate(2.449692, 8.747675) scale(-1, -1) rotate(-18.000000) translate(-2.449692, -8.747675) "></path>
                <path d="M0.0129142258,0 C-0.138342823,2.5390625 1.03909156,3.80859375 3.54521736,3.80859375" id="Path-10-Copy-11" transform="translate(1.772609, 1.904297) scale(-1, 1) translate(-1.772609, -1.904297) "></path>
                <path d="M6.17920887,3.45796131 C6.02795182,5.99702381 7.2053862,7.26655506 9.711512,7.26655506" id="Path-10-Copy-13" transform="translate(7.938903, 5.362258) scale(1, -1) rotate(45.000000) translate(-7.938903, -5.362258) "></path>
            </g>
        </g>
    </g>
</svg>