<?xml version="1.0" encoding="UTF-8" standalone="no"?>
<svg width="97px" height="97px" viewBox="0 0 97 97" version="1.1" xmlns="http://www.w3.org/2000/svg" xmlns:xlink="http://www.w3.org/1999/xlink">
    <!-- Generator: Sketch 48.2 (47327) - http://www.bohemiancoding.com/sketch -->
    <title>2active</title>
    <desc>Created with Sketch.</desc>
    <defs></defs>
    <g id="Admin" stroke="none" stroke-width="1" fill="none" fill-rule="evenodd">
        <g id="2">
            <circle id="Oval-8-Copy-8" fill="#F5D223" cx="48.3333333" cy="48.3333333" r="48.3333333"></circle>
            <path d="M20.3910269,9 C9.99868188,17.2429532 3.33333333,29.981034 3.33333333,44.2758904 C3.33333333,69.1287041 23.4805196,89.2758904 48.3333333,89.2758904 C73.1861471,89.2758904 93.3333333,69.1287041 93.3333333,44.2758904 C93.3333333,29.981034 86.6679848,17.2429532 76.2756398,9 C88.6148696,17.7573448 96.6666667,32.1596519 96.6666667,48.442557 C96.6666667,75.1363199 75.0270962,96.7758904 48.3333333,96.7758904 C21.6395704,96.7758904 0,75.1363199 0,48.442557 C0,32.1596519 8.05179708,17.7573448 20.3910269,9 Z" id="Combined-Shape-Copy-3" fill="#000000" opacity="0.1"></path>
            <g id="Group-6" transform="translate(15.000000, 52.000000)" fill="#F5A623">
                <ellipse id="Oval-9-Copy-7" cx="7.79166667" cy="4.66666667" rx="7.29166667" ry="4.16666667"></ellipse>
                <ellipse id="Oval-9-Copy-6" cx="60.2916667" cy="4.66666667" rx="7.29166667" ry="4.16666667"></ellipse>
            </g>
            <path d="M41,65.5 C42.5356174,63.8333333 45.0967522,63 48.6834043,63 C52.2700565,63 54.7089217,63.8333333 56,65.5" id="Path-10-Copy-5" stroke="#8B572A" stroke-width="4" stroke-linecap="round"></path>
            <g id="Group-5" transform="translate(22.000000, 41.000000)" fill="#8B572A">
                <circle id="Oval-10-Copy-3" cx="4.33333333" cy="4.83333333" r="4.16666667"></circle>
                <circle id="Oval-10-Copy-2" cx="49.3333333" cy="4.83333333" r="4.16666667"></circle>
            </g>
            <ellipse id="Oval-12-Copy-3" fill="#FFFFFF" opacity="0.440065299" transform="translate(49.083333, 16.500000) scale(1, -1) translate(-49.083333, -16.500000) " cx="49.0833333" cy="16.5" rx="22.0833333" ry="12.5"></ellipse>
        </g>
    </g>
</svg>