<?xml version="1.0" encoding="UTF-8" standalone="no"?>
<svg width="100px" height="100px" viewBox="0 0 100 100" version="1.1" xmlns="http://www.w3.org/2000/svg" xmlns:xlink="http://www.w3.org/1999/xlink">
    <!-- Generator: Sketch 48.2 (47327) - http://www.bohemiancoding.com/sketch -->
    <title>4active</title>
    <desc>Created with Sketch.</desc>
    <defs>
        <radialGradient cx="50%" cy="6.61587939%" fx="50%" fy="6.61587939%" r="50%" gradientTransform="translate(0.500000,0.066159),scale(1.000000,0.641539),translate(-0.500000,-0.066159)" id="radialGradient-1">
            <stop stop-color="#FFB230" offset="0%"></stop>
            <stop stop-color="#F5D223" offset="100%"></stop>
        </radialGradient>
    </defs>
    <g id="Admin" stroke="none" stroke-width="1" fill="none" fill-rule="evenodd">
        <g id="4">
            <circle id="Oval-11" fill="url(#radialGradient-1)" transform="translate(49.583333, 49.583333) scale(1, -1) translate(-49.583333, -49.583333) " cx="49.5833333" cy="49.5833333" r="49.5833333"></circle>
            <path d="M21.3910269,12 C10.9986819,20.2429532 4.33333333,32.981034 4.33333333,47.2758904 C4.33333333,72.1287041 24.4805196,92.2758904 49.3333333,92.2758904 C74.1861471,92.2758904 94.3333333,72.1287041 94.3333333,47.2758904 C94.3333333,32.981034 87.6679848,20.2429532 77.2756398,12 C89.6148696,20.7573448 97.6666667,35.1596519 97.6666667,51.442557 C97.6666667,78.1363199 76.0270962,99.7758904 49.3333333,99.7758904 C22.6395704,99.7758904 1,78.1363199 1,51.442557 C1,35.1596519 9.05179708,20.7573448 21.3910269,12 Z" id="Combined-Shape" fill="#000000" opacity="0.1"></path>
            <g id="Group-13" transform="translate(15.000000, 52.000000)" fill="#F5A623">
                <ellipse id="Oval-9" cx="7.45833333" cy="4.66666667" rx="7.29166667" ry="4.16666667"></ellipse>
                <ellipse id="Oval-9-Copy" cx="61.625" cy="4.66666667" rx="7.29166667" ry="4.16666667"></ellipse>
            </g>
            <g id="Group-12" transform="translate(22.000000, 43.000000)" stroke="#8B572A" stroke-linecap="round" stroke-width="4">
                <path d="M0.666666667,4.5 C1.77572368,1.72222222 3.62543213,0.333333333 6.21579202,0.333333333 C8.80615191,0.333333333 10.5675546,1.72222222 11.5,4.5" id="Path-10-Copy-3"></path>
                <path d="M44,4.5 C45.0406401,1.72222222 46.7762414,0.333333333 49.2068039,0.333333333 C51.6373664,0.333333333 53.2901094,1.72222222 54.1650329,4.5" id="Path-10-Copy-4"></path>
            </g>
            <path d="M42,65.5 C43.5356174,63.8333333 46.0967522,63 49.6834043,63 C53.2700565,63 55.7089217,63.8333333 57,65.5" id="Path-10-Copy-2" stroke="#8B572A" stroke-width="4" stroke-linecap="round" transform="translate(49.500000, 64.250000) scale(1, -1) translate(-49.500000, -64.250000) "></path>
            <ellipse id="Oval-12-Copy" fill="#FFFFFF" opacity="0.440065299" transform="translate(49.722222, 12.333333) scale(1, -1) translate(-49.722222, -12.333333) " cx="49.7222222" cy="12.3333333" rx="14.7222222" ry="8.33333333"></ellipse>
        </g>
    </g>
</svg>