<?xml version="1.0" encoding="UTF-8" standalone="no"?>
<svg width="716px" height="716px" viewBox="0 0 716 716" version="1.1" xmlns="http://www.w3.org/2000/svg" xmlns:xlink="http://www.w3.org/1999/xlink">
    <!-- Generator: Sketch 48.2 (47327) - http://www.bohemiancoding.com/sketch -->
    <title>Group 26</title>
    <desc>Created with Sketch.</desc>
    <defs></defs>
    <g id="Admin" stroke="none" stroke-width="1" fill="none" fill-rule="evenodd">
        <g id="Group-26" transform="translate(-9.000000, -17.000000)">
            <path d="M285.583617,185.697216 C313.197855,185.697216 345.387539,149.735918 345.387539,105.375408 C345.387539,61.0148984 311.290065,11.4041425 283.675827,11.4041425 C256.06159,11.4041425 245.387539,61.0148984 245.387539,105.375408 C245.387539,149.735918 257.96938,185.697216 285.583617,185.697216 Z" id="Oval-17" fill="#FFB100" transform="translate(295.387539, 98.550679) rotate(-16.000000) translate(-295.387539, -98.550679) "></path>
            <path d="M454.042808,732.63576 C478.964357,732.63576 508.015197,698.929842 508.015197,657.351485 C508.015197,615.773128 477.242597,569.273803 452.321048,569.273803 C427.399499,569.273803 417.766284,615.773128 417.766284,657.351485 C417.766284,698.929842 429.121259,732.63576 454.042808,732.63576 Z" id="Oval-17-Copy" fill="#FFB100" transform="translate(462.890740, 650.954782) rotate(-16.000000) translate(-462.890740, -650.954782) "></path>
            <path d="M633.81149,380.895722 C658.733039,380.895722 687.783879,344.934424 687.783879,300.573914 C687.783879,256.213405 657.011279,206.602649 632.08973,206.602649 C607.168181,206.602649 597.534966,256.213405 597.534966,300.573914 C597.534966,344.934424 608.889941,380.895722 633.81149,380.895722 Z" id="Oval-17" fill="#FFB100" transform="translate(642.659423, 293.749185) rotate(-286.000000) translate(-642.659423, -293.749185) "></path>
            <path d="M82.3098615,533.570711 C107.231411,533.570711 136.282251,499.864793 136.282251,458.286436 C136.282251,416.708079 105.509651,370.208754 80.5881016,370.208754 C55.6665524,370.208754 46.0333376,416.708079 46.0333376,458.286436 C46.0333376,499.864793 57.3883123,533.570711 82.3098615,533.570711 Z" id="Oval-17-Copy" fill="#FFB100" transform="translate(91.157794, 451.889733) rotate(-286.000000) translate(-91.157794, -451.889733) "></path>
            <path d="M501.699391,209.880495 C529.313628,209.880495 561.503312,173.919197 561.503312,129.558687 C561.503312,85.1981778 527.405838,35.587422 499.791601,35.587422 C472.177363,35.587422 461.503312,85.1981778 461.503312,129.558687 C461.503312,173.919197 474.085153,209.880495 501.699391,209.880495 Z" id="Oval-17" fill="#FFB100" transform="translate(511.503312, 122.733959) rotate(-331.000000) translate(-511.503312, -122.733959) "></path>
            <path d="M219.631548,706.207731 C244.553097,706.207731 273.603937,672.501813 273.603937,630.923456 C273.603937,589.345099 242.831337,542.845775 217.909788,542.845775 C192.988239,542.845775 183.355024,589.345099 183.355024,630.923456 C183.355024,672.501813 194.709999,706.207731 219.631548,706.207731 Z" id="Oval-17-Copy" fill="#FFB100" transform="translate(228.479481, 624.526753) rotate(-331.000000) translate(-228.479481, -624.526753) "></path>
            <path d="M608.759482,596.912517 C633.681032,596.912517 662.731872,560.951218 662.731872,516.590709 C662.731872,472.230199 631.959272,422.619443 607.037723,422.619443 C582.116173,422.619443 572.482959,472.230199 572.482959,516.590709 C572.482959,560.951218 583.837933,596.912517 608.759482,596.912517 Z" id="Oval-17" fill="#FFB100" transform="translate(617.607415, 509.765980) rotate(-601.000000) translate(-617.607415, -509.765980) "></path>
            <path d="M106.966688,313.29867 C131.888237,313.29867 160.939077,279.592752 160.939077,238.014395 C160.939077,196.436038 130.166477,149.936714 105.244928,149.936714 C80.3233787,149.936714 70.6901639,196.436038 70.6901639,238.014395 C70.6901639,279.592752 82.0451386,313.29867 106.966688,313.29867 Z" id="Oval-17-Copy" fill="#FFB100" transform="translate(115.814620, 231.617692) rotate(-601.000000) translate(-115.814620, -231.617692) "></path>
            <path d="M390.826024,212.145861 C412.641271,212.145861 438.071122,181.974482 438.071122,144.7562 C438.071122,107.537917 411.134117,65.9147 389.31887,65.9147 C367.503622,65.9147 359.071122,107.537917 359.071122,144.7562 C359.071122,181.974482 369.010776,212.145861 390.826024,212.145861 Z" id="Oval-17" fill="#FFB100" transform="translate(398.571122, 139.030281) rotate(7.000000) translate(-398.571122, -139.030281) "></path>
            <path d="M332.163677,685.326757 C353.978924,685.326757 379.408775,657.047632 379.408775,622.163564 C379.408775,587.279496 352.47177,548.266757 330.656523,548.266757 C308.841275,548.266757 300.408775,587.279496 300.408775,622.163564 C300.408775,657.047632 310.348429,685.326757 332.163677,685.326757 Z" id="Oval-17-Copy" fill="#FFB100" transform="translate(339.908775, 616.796757) rotate(7.000000) translate(-339.908775, -616.796757) "></path>
            <path d="M598.819679,478.341745 C620.634926,478.341745 646.064777,448.170366 646.064777,410.952084 C646.064777,373.733801 619.127772,332.110584 597.312524,332.110584 C575.497277,332.110584 567.064777,373.733801 567.064777,410.952084 C567.064777,448.170366 577.004431,478.341745 598.819679,478.341745 Z" id="Oval-17" fill="#FFB100" transform="translate(606.564777, 405.226165) rotate(-263.000000) translate(-606.564777, -405.226165) "></path>
            <path d="M121.053202,415.093818 C142.86845,415.093818 168.2983,386.814693 168.2983,351.930625 C168.2983,317.046557 141.361296,278.033818 119.546048,278.033818 C97.7308004,278.033818 89.2983002,317.046557 89.2983002,351.930625 C89.2983002,386.814693 99.2379546,415.093818 121.053202,415.093818 Z" id="Oval-17-Copy" fill="#FFB100" transform="translate(128.798300, 346.563818) rotate(-263.000000) translate(-128.798300, -346.563818) "></path>
            <path d="M549.812199,301.656225 C571.627447,301.656225 597.057297,271.484846 597.057297,234.266564 C597.057297,197.048281 570.120293,155.425064 548.305045,155.425064 C526.489798,155.425064 518.057297,197.048281 518.057297,234.266564 C518.057297,271.484846 527.996952,301.656225 549.812199,301.656225 Z" id="Oval-17" fill="#FFB100" transform="translate(557.557297, 228.540645) rotate(-308.000000) translate(-557.557297, -228.540645) "></path>
            <path d="M170.499741,593.422017 C192.314988,593.422017 217.744839,565.142892 217.744839,530.258824 C217.744839,495.374756 190.807834,456.362017 168.992586,456.362017 C147.177339,456.362017 138.744839,495.374756 138.744839,530.258824 C138.744839,565.142892 148.684493,593.422017 170.499741,593.422017 Z" id="Oval-17-Copy" fill="#FFB100" transform="translate(178.244839, 524.892017) rotate(-308.000000) translate(-178.244839, -524.892017) "></path>
            <path d="M508.657008,636.958864 C530.472256,636.958864 555.902107,606.787485 555.902107,569.569202 C555.902107,532.35092 528.965102,490.727702 507.149854,490.727702 C485.334607,490.727702 476.902107,532.35092 476.902107,569.569202 C476.902107,606.787485 486.841761,636.958864 508.657008,636.958864 Z" id="Oval-17" fill="#FFB100" transform="translate(516.402107, 563.843283) rotate(-578.000000) translate(-516.402107, -563.843283) "></path>
            <path d="M212.305637,253.060824 C234.120884,253.060824 259.550735,224.7817 259.550735,189.897632 C259.550735,155.013564 232.61373,116.000824 210.798482,116.000824 C188.983235,116.000824 180.550735,155.013564 180.550735,189.897632 C180.550735,224.7817 190.490389,253.060824 212.305637,253.060824 Z" id="Oval-17-Copy" fill="#FFB100" transform="translate(220.050735, 184.530824) rotate(-578.000000) translate(-220.050735, -184.530824) "></path>
            <circle id="Oval-15" fill="#FFC700" transform="translate(369.500000, 371.500000) rotate(-16.000000) translate(-369.500000, -371.500000) " cx="369.5" cy="371.5" r="248.5"></circle>
            <g id="Group-23" transform="translate(209.000000, 304.000000)">
                <g id="Group-22">
                    <ellipse id="Oval-18" fill="#6A3B12" cx="47" cy="46.5" rx="47" ry="46.5"></ellipse>
                    <ellipse id="Oval-19" fill="#000000" cx="46" cy="49.4680851" rx="27" ry="26.712766"></ellipse>
                    <ellipse id="Oval-20" fill="#FFFFFF" cx="29.5" cy="28.1968085" rx="16.5" ry="16.3244681"></ellipse>
                    <ellipse id="Oval-21" fill="#FFFFFF" cx="18.5" cy="53.9202128" rx="5.5" ry="5.44148936"></ellipse>
                </g>
                <g id="Group-22-Copy" transform="translate(274.000000, 46.500000) scale(-1, 1) translate(-274.000000, -46.500000) translate(227.000000, 0.000000)">
                    <ellipse id="Oval-18" fill="#6A3B12" cx="47" cy="46.5" rx="47" ry="46.5"></ellipse>
                    <ellipse id="Oval-19" fill="#000000" cx="46" cy="49.4680851" rx="27" ry="26.712766"></ellipse>
                    <ellipse id="Oval-20" fill="#FFFFFF" cx="29.5" cy="28.1968085" rx="16.5" ry="16.3244681"></ellipse>
                    <ellipse id="Oval-21" fill="#FFFFFF" cx="18.5" cy="53.9202128" rx="5.5" ry="5.44148936"></ellipse>
                </g>
            </g>
            <path d="M320,445.968861 C333.141413,435.322954 349.791846,430 369.951298,430 C390.110751,430 406.793651,435.333333 420,446" id="Path-20" stroke="#6A3B12" stroke-width="14" stroke-linecap="round" transform="translate(370.000000, 438.000000) scale(1, -1) translate(-370.000000, -438.000000) "></path>
            <ellipse id="Oval-22" fill="#FF5A5A" opacity="0.474521922" cx="220.5" cy="444" rx="47.5" ry="33"></ellipse>
            <ellipse id="Oval-22-Copy" fill="#FF5A5A" opacity="0.474521922" cx="529.5" cy="444" rx="47.5" ry="33"></ellipse>
        </g>
    </g>
</svg>