<?xml version="1.0" encoding="UTF-8" standalone="no"?>
<svg width="571px" height="515px" viewBox="0 0 571 515" version="1.1" xmlns="http://www.w3.org/2000/svg" xmlns:xlink="http://www.w3.org/1999/xlink">
    <!-- Generator: Sketch 48.2 (47327) - http://www.bohemiancoding.com/sketch -->
    <title>Group 25</title>
    <desc>Created with Sketch.</desc>
    <defs></defs>
    <g id="Admin" stroke="none" stroke-width="1" fill="none" fill-rule="evenodd">
        <g id="Group-25" transform="translate(-59.000000, -41.000000)">
            <circle id="Oval-15-Copy-2" fill="#BCDAFF" transform="translate(307.500000, 307.500000) rotate(-16.000000) translate(-307.500000, -307.500000) " cx="307.5" cy="307.5" r="248.5"></circle>
            <path d="M316,555.592965 C453.208899,515.957318 532.481393,372.693654 493.097126,235.344393 C468.008864,147.851226 400.816064,83.8378977 319.834326,59 C422.7216,64.4909495 515.452503,134.111958 545.447762,238.717859 C583.276994,370.644068 506.996322,508.258042 375.070114,546.087274 C355.389937,551.730474 335.583188,554.834343 316,555.592965 Z" id="Combined-Shape" fill-opacity="0.3" fill="#000000"></path>
            <path d="M172.041195,516.492347 C141.268861,496.726178 114.753587,470.152784 95.0000063,438.160506 C95.8177728,436.731992 96.8180654,435.43415 98.0062433,434.28674 C110.128326,422.580581 137.216222,430.965161 158.508754,453.014223 C179.801286,475.063286 187.235405,502.427299 175.113322,514.133458 C174.175628,515.038979 173.148382,515.824284 172.041195,516.492347 Z" id="Combined-Shape" fill-opacity="0.1" fill="#000000"></path>
            <path d="M258,426.968861 C271.141413,416.322954 287.791846,411 307.951298,411 C328.110751,411 344.793651,416.333333 358,427" id="Path-20-Copy" stroke="#6183A7" stroke-width="14" stroke-linecap="round" transform="translate(308.000000, 419.000000) scale(1, -1) translate(-308.000000, -419.000000) "></path>
            <ellipse id="Oval-23" fill-opacity="0.100000001" fill="#000000" transform="translate(138.000000, 227.500000) rotate(20.000000) translate(-138.000000, -227.500000) " cx="138" cy="227.5" rx="32" ry="40.5"></ellipse>
            <ellipse id="Oval-23-Copy" fill-opacity="0.100000001" fill="#000000" cx="329.5" cy="97" rx="45.5" ry="23"></ellipse>
            <ellipse id="Oval-23-Copy-2" fill-opacity="0.100000001" fill="#000000" transform="translate(398.434410, 482.375298) rotate(63.000000) translate(-398.434410, -482.375298) " cx="398.43441" cy="482.375298" rx="45.5" ry="52.5"></ellipse>
            <ellipse id="Oval-23-Copy-3" fill-opacity="0.100000001" fill="#000000" transform="translate(310.714892, 486.372994) rotate(622.000000) translate(-310.714892, -486.372994) " cx="310.714892" cy="486.372994" rx="25.5228154" ry="29.4494024"></ellipse>
            <ellipse id="Oval-23-Copy-10" fill-opacity="0.100000001" fill="#000000" transform="translate(344.714892, 169.372994) rotate(622.000000) translate(-344.714892, -169.372994) " cx="344.714892" cy="169.372994" rx="25.5228154" ry="29.4494024"></ellipse>
            <ellipse id="Oval-23-Copy-4" fill-opacity="0.100000001" fill="#000000" transform="translate(462.857815, 419.744927) rotate(46.000000) translate(-462.857815, -419.744927) " cx="462.857815" cy="419.744927" rx="28.6900743" ry="33.2638543"></ellipse>
            <ellipse id="Oval-23-Copy-5" fill-opacity="0.100000001" fill="#000000" transform="translate(522.173581, 246.652710) rotate(-12.000000) translate(-522.173581, -246.652710) " cx="522.173581" cy="246.65271" rx="19" ry="36.5"></ellipse>
            <ellipse id="Oval-23-Copy-6" fill-opacity="0.100000001" fill="#000000" cx="264" cy="130.5" rx="29" ry="17.5"></ellipse>
            <ellipse id="Oval-23-Copy-7" fill-opacity="0.100000001" fill="#000000" cx="131.5" cy="318.5" rx="12.5" ry="14.5"></ellipse>
            <ellipse id="Oval-23-Copy-9" fill-opacity="0.100000001" fill="#000000" transform="translate(457.524218, 211.776394) rotate(-16.000000) translate(-457.524218, -211.776394) " cx="457.524218" cy="211.776394" rx="36.2804533" ry="44.5"></ellipse>
            <ellipse id="Oval-23-Copy-8" fill-opacity="0.100000001" fill="#000000" cx="87" cy="292" rx="19" ry="29"></ellipse>
            <g id="Group-12" transform="translate(307.500000, 322.000000) scale(1, -1) translate(-307.500000, -322.000000) translate(170.000000, 284.000000)">
                <ellipse id="Oval-24" fill-opacity="0.399999976" fill="#6183A7" cx="41" cy="38" rx="41" ry="38"></ellipse>
                <ellipse id="Oval-24-Copy" fill-opacity="0.399999976" fill="#6183A7" cx="234" cy="38" rx="41" ry="38"></ellipse>
                <path d="M8,21 C15.0638401,7 26.8450601,1.20050982e-15 43.34366,0 C59.8422599,0 71.0610399,7 77,21" id="Path-10-Copy-3" stroke="#6183A7" stroke-width="14" stroke-linecap="round"></path>
                <path d="M202,21 C208.654342,7 219.752593,1.20050982e-15 235.294752,0 C250.836911,0 261.405327,7 267,21" id="Path-10-Copy-4" stroke="#6183A7" stroke-width="14" stroke-linecap="round"></path>
            </g>
            <g id="Group-24" transform="translate(511.000000, 8.000000)" fill="#4A4A4A" font-family="ComicSansMS, Comic Sans MS" font-weight="normal">
                <text id="Z" font-size="55">
                    <tspan x="0" y="129">Z</tspan>
                </text>
                <text id="Z-Copy" font-size="93">
                    <tspan x="56" y="102">Z</tspan>
                </text>
            </g>
        </g>
    </g>
</svg>