<?xml version="1.0" encoding="UTF-8" standalone="no"?>
<svg style="position: absolute; width: 0; height: 0; overflow: hidden;" version="1.1" xmlns="http://www.w3.org/2000/svg"
     xmlns:xlink="http://www.w3.org/1999/xlink">
    <defs>

        <symbol id="star-empty" viewBox="5 0 90 100">
            <title>star-empty</title>
                <g id="Question-Type-1" stroke="none" stroke-width="1" fill="none" fill-rule="evenodd" transform="translate(-965.000000, -349.000000)">
                  <g id="Group-3" transform="translate(327.000000, 344.000000)" fill="#D8D8D8">
                      <path d="M668.277271,61.9571545 L655.662479,68.5891433 C653.7071,69.6171466 651.288592,68.8653605 650.260588,66.9099822 C649.851232,66.1313402 649.709973,65.2394679 649.858681,64.3724374 L652.97887,46.1803399 L639.761537,33.2966249 C638.179603,31.75462 638.147234,29.222167 639.689238,27.6402327 C640.303273,27.0102981 641.107843,26.6003494 641.978391,26.4738514 L660.244295,23.8196601 L668.413056,7.267943 C669.390745,5.28692836 671.789248,4.47357237 673.770263,5.45126154 C674.559113,5.8405825 675.197623,6.47909258 675.586944,7.267943 L683.755705,23.8196601 L702.021609,26.4738514 C704.207789,26.7915218 705.722515,28.8212932 705.404844,31.0074727 C705.278346,31.8780208 704.868397,32.6825905 704.238463,33.2966249 L691.02113,46.1803399 L694.141319,64.3724374 C694.514763,66.5497832 693.052412,68.6176069 690.875066,68.9910509 C690.008036,69.1397583 689.116163,68.9984996 688.337521,68.5891433 L675.722729,61.9571545 C673.392137,60.7318896 670.607863,60.7318896 668.277271,61.9571545 Z" id="Star-idle"></path>
                  </g>
              </g>
        </symbol>

        <symbol id="star-half" viewBox="0 0 34 32">
            <title>star-half</title>
            <path class="path-star-half"
                  d="M 33.412,12.395 21.57,11.374 16.942,0.47 12.314,11.39 0.472,12.395 9.465,20.186 6.764,31.765 16.943,25.621 27.122,31.765 24.437,20.186 33.413,12.395 Z M 16.941,22.541 c 0,0 -0.297971,-14.6455833 0,-15.318 l 2.816,6.654 7.214,0.626 -5.468,4.744 1.647,7.049 z"/>
            </symbol>

        <symbol id="star-filled" viewBox="5 0 90 100">
            <title>star-filled</title>
            <g id="Question-Type-1" stroke="none" stroke-width="1" fill="none" fill-rule="evenodd" transform="translate(-491.000000, -349.000000)">
              <g id="Group-3" transform="translate(327.000000, 344.000000)" fill="#F5E123">
                  <path d="M194.277271,61.9571545 L181.662479,68.5891433 C179.7071,69.6171466 177.288592,68.8653605 176.260588,66.9099822 C175.851232,66.1313402 175.709973,65.2394679 175.858681,64.3724374 L178.97887,46.1803399 L165.761537,33.2966249 C164.179603,31.75462 164.147234,29.222167 165.689238,27.6402327 C166.303273,27.0102981 167.107843,26.6003494 167.978391,26.4738514 L186.244295,23.8196601 L194.413056,7.267943 C195.390745,5.28692836 197.789248,4.47357237 199.770263,5.45126154 C200.559113,5.8405825 201.197623,6.47909258 201.586944,7.267943 L209.755705,23.8196601 L228.021609,26.4738514 C230.207789,26.7915218 231.722515,28.8212932 231.404844,31.0074727 C231.278346,31.8780208 230.868397,32.6825905 230.238463,33.2966249 L217.02113,46.1803399 L220.141319,64.3724374 C220.514763,66.5497832 219.052412,68.6176069 216.875066,68.9910509 C216.008036,69.1397583 215.116163,68.9984996 214.337521,68.5891433 L201.722729,61.9571545 C199.392137,60.7318896 196.607863,60.7318896 194.277271,61.9571545 Z" id="Star-active"></path>
              </g>
          </g>
        </symbol>

    </defs>
</svg>
